<svg xmlns="http://www.w3.org/2000/svg" xml:space="preserve" width="51.800976mm" height="59.631813mm" viewBox="0 0 51.800976 59.631813"><g style="display:inline;fill:#03492d;fill-opacity:1"><path d="m47.435.505 30.158 78.562-45.088 10.062 89.477 81.527 89.297-81.36-45.014-10.326L196.221.008l-74.247 47.784Zm8.526 10.522 66.025 43.642 65.546-43.314-26.856 71.085 41.709 9.543-80.479 73.12-80.567-73.2 41.908-9.376z" style="display:inline;fill:#03492d;fill-opacity:1;stroke:none;stroke-width:.25;stroke-opacity:1" transform="matrix(.2226 0 0 .2226 1.217 -.002)"/><path d="m53.71 6.88 26.46 73.023-43.657 11.378 85.46 76.2 84.667-76.2-41.805-10.054 25.93-73.819-69.321 43.657zm10.055 13.294 12.322 8.1L99.795 90.05l-29.392 6.686-17.197-3.782 34.977-8.245zm116.083.202L155.5 84.615l35.033 8.362-16.81 3.75-29.642-6.575 23.652-61.882zM80.764 31.345l39.42 26.376-.055 82.39-9.696-8.365-.039-68.97L86.1 45.221Zm82.126.21-5.058 13.61-24.623 17.702.141 69.292-9.653 8.393-.018-82.798zm-110.531 64.7 17.148 3.86 50.622 45.087-.117 12.645zm138.997.06-67.557 61.608-.127-12.626 50.68-45.207z" style="display:inline;fill:#03492d;fill-opacity:1;stroke:none;stroke-width:.25" transform="matrix(.2226 0 0 .2226 1.217 -.002)"/><path d="M99.838 234.315c-4.999.012-13.831-.152-20.909-.183l-.008 26.784 21.755.068c.133-.103 4.301-.118 6.51-2.993 1.002-1.305 1.214-2.459 1.35-4.263.149-1.982-.445-3.713-1.25-4.883-.808-1.177-1.83-1.788-2.036-1.809 0 0 2.782-2.146 2.337-6.281-.84-4.315-3.903-6.605-7.749-6.44m-15.353 5.476 14.6.034c0-.097 2.933.373 2.993 2.333-.087 2.324-2.334 2.498-2.857 2.523H84.45Zm15.54 10.254c1.043.128 2.908.23 3.023 2.931.09 2.075-2.16 2.58-2.574 2.594l-15.956.138v-5.667h14.634c.003-.014.796-.005.874.005zm35.338-15.918c-.057.001-.353-.017-.357-.009l-20.102.083.226 26.8 5.368.122-.15-9.526 10.866.004 6.485 9.663 6.316-.02-6.398-10.434c.023.022 5.76-1.068 5.675-8.142-.09-7.481-6.344-8.486-7.211-8.516zm-15.139 5.639h13.797c.292 0 3.443-.252 3.627 3.097-.107 3.138-2.977 3.03-3.2 3.032l-14.037.121z" style="display:inline;fill:#03492d;fill-opacity:1;stroke-width:.257057" transform="matrix(.2226 0 0 .2226 1.217 -.002)"/><path d="M149.102 234.047h5.245v26.864h-5.245z" style="fill:#03492d;fill-opacity:1;stroke-width:.254005" transform="matrix(.2226 0 0 .2226 1.217 -.002)"/><path d="M176.587 233.642q-.2 0-.401.003c-9.375-.352-16.193 5.414-16.27 14.325.26 9.42 7.862 14.21 16.192 14.27 10.342.03 16.212-6.902 16.457-13.712.027-10.032-7.569-14.86-15.978-14.886m10.056 14.106c.067 4.557-4.9 8.588-10.668 8.642-5.77.055-9.863-3.732-9.803-9.098s3.999-7.878 10.132-7.958 10.271 3.858 10.339 8.414m11.658-13.454-.178 26.889 6.077.013-.1-18.825 17.163 19.049 5.984.02-.02-27.223-6.01.044.025 18.796-16.948-18.829z" style="display:inline;fill:#03492d;fill-opacity:1;stroke-width:.253661" transform="matrix(.2226 0 0 .2226 1.217 -.002)"/></g><path d="M-41.661 93.2a5.427 5.382 0 0 0-5.424 5.384 5.427 5.382 0 0 0 5.43 5.38 5.427 5.382 0 0 0 5.425-5.383v-.005a5.427 5.382 0 0 0-5.431-5.377m.052 3.12a2.304 2.285 0 0 1 2.305 2.282v.003a2.304 2.285 0 0 1-2.303 2.284 2.304 2.285 0 0 1-2.305-2.283 2.304 2.285 0 0 1 2.303-2.286" style="fill:#03492d;fill-opacity:1;stroke-width:.242757" transform="translate(49.816 -55.836)"/><path d="m-48.348 104.941 13.19.024c2.065-.002 2.193 3.12.024 3.11H-48.09c-2.168.013-2.337-3.162-.258-3.134M-42.495 108.648c.457-.408 1.454-.379 1.878.018l3.94 3.9c1.673 1.66-.47 3.743-1.965 2.549l-2.994-2.97-2.9 2.946c-1.452 1.218-3.55-.86-2.408-2.221zM-31.198 98.437l.007 6.745c-.006 1.015 1.959 1.055 1.986.014l-.033-4.978c.06-1.567 2.89-1.694 2.894-.05v4.995c-.027 1.074 1.95 1.107 1.951 0l.05-4.928c.027-1.706 2.834-1.818 2.877.066v4.928c-.004.988 2.015.924 1.968-.017l.058-4.903c.012-3.345-3.967-4.409-5.81-2.426-.834-.575-2.36-1.684-4.045-.605-.564-.779-1.92-.31-1.88.434z" style="fill:#03492d;fill-opacity:1;stroke-width:.25" transform="translate(49.816 -55.836)"/><path d="M-9.782 96.892c-.476 0-1.05.256-1.08.84-3.867-2.506-7.288.856-7.303 3.836-.017 3.31 3.681 6.133 7.46 3.842.038.93 1.85.845 1.842-.281l.006-7.224c.006-.547-.387-1.013-.925-1.013m-3.754 1.97c1.54 0 2.723 1.271 2.723 2.813v.003c0 1.541-1.133 2.533-2.674 2.534s-2.674-1.038-2.675-2.58c0-1.541 1.084-2.768 2.626-2.77z" style="fill:#03492d;fill-opacity:1;stroke-width:.254982" transform="translate(49.816 -55.836)"/><path d="M-7.416 98.224c-.018-1.536 1.844-1.825 2.151-.445 3.033-2.596 7.286.42 7.22 3.631l-.022 3.859c.024 1.046-1.94 1.038-1.936.003l.02-3.599c.036-3.268-5.086-3.84-5.334-.122l-.024 3.624c-.015 1.128-2.025 1.028-2.01-.023z" style="display:inline;fill:#03492d;fill-opacity:1;stroke-width:.25" transform="translate(49.816 -55.836)"/></svg>