<svg xmlns="http://www.w3.org/2000/svg" width="33.231201" height="75" fill="none" viewBox="0 0 33.231201 75"><path fill="#0b50f2" d="M33.228 0 0 12.865v8.34L33.228 8.34ZM26.042 22.994v21.392l-9.428 5.901-9.447-5.912V38.53L0 41.303v5.72c0 1.411.736 2.727 1.95 3.485l11.845 7.396a5.33 5.33 0 0 0 5.637 0l11.82-7.397c1.212-.759 1.974-2.072 1.976-3.482v-26.81Z"/><path fill="#0b50f2" d="M33.228 10.098 0 22.963v16.564l7.167-2.774v-8.236l26.06-10.08ZM16.496 65.448l-.676-1.513c-.22-.517-.671-.76-1.268-.76H7.194v.361l1.103 1.081h5.7c.205 0 .379.12.459.288l.55 1.067a.23.23 0 0 1 0 .176l-.55 1.066a.5.5 0 0 1-.459.288H9.623a.147.147 0 0 1-.148-.145v-.866l-1.178-1.154H7.93v3.173c0 .239.198.433.442.433h6.182c.595 0 1.048-.243 1.267-.759l.677-1.512a1.64 1.64 0 0 0 0-1.226M25.665 63.177l-1.178 1.154v2.925c0 .08-.053.153-.133.168a.17.17 0 0 1-.153-.044l-3.788-3.712a1.73 1.73 0 0 0-1.325-.486 1.71 1.71 0 0 0-1.594 1.704v4.062h.368l1.178-1.155v-2.925a.17.17 0 0 1 .133-.168.17.17 0 0 1 .152.044l3.788 3.712c.334.327.808.52 1.326.487a1.71 1.71 0 0 0 1.593-1.705v-4.061zM4.137 71.733l.945-.931H0v4.165h1.283v-1.652h2.314l.866-.846h-3.18v-.736zM9.566 70.802H5.373v4.15H6.65v-1.386h2.442l.347.332a.12.12 0 0 1 .038.086v.967h1.278v-1.006a.44.44 0 0 0-.131-.312l-.6-.588.533-.702a.43.43 0 0 0 0-.526l-.63-.836a.45.45 0 0 0-.362-.18m-.533 1.821H6.775a.123.123 0 0 1-.124-.122v-.65c0-.066.054-.121.124-.121h2.268a.14.14 0 0 1 .108.052l.252.325a.09.09 0 0 1 0 .106l-.262.355a.14.14 0 0 1-.11.055zM22.884 72.84l.452-.902a.36.36 0 0 1 .32-.197h2.778l.89-.94h-4.432c-.173 0-.33.102-.405.258l-.774 1.652a.45.45 0 0 0 0 .38l.774 1.652a.45.45 0 0 0 .405.257h3.386l.896-.94h-3.572a.27.27 0 0 1-.24-.147l-.476-.953a.14.14 0 0 1 0-.12z"/><path fill="#0b50f2" d="m28.92 72.44-.258-.261a.13.13 0 0 1 .004-.17l.255-.242a.1.1 0 0 1 .07-.03h3.286l.954-.935h-4.713a.46.46 0 0 0-.366.18l-.769.84a.44.44 0 0 0 0 .53l.738.79a.46.46 0 0 0 .364.18h3.018l.236.29a.13.13 0 0 1-.003.17l-.23.262h-3.242l-.946.935h4.714c.144 0 .279-.067.364-.18l.63-.836c.18-.238.18-.295 0-.53l-.6-.782a.46.46 0 0 0-.363-.177h-3.072a.1.1 0 0 1-.071-.033zM15.526 71.733l.943-.931h-5.082v4.165h3.98l.951-.93h-3.647v-.722h2.313l.866-.846H12.67v-.736zM21.058 71.733l.944-.931H16.92v4.165h3.979l.952-.93h-3.647v-.722h2.312l.866-.846h-3.178v-.736z"/></svg>