<svg xmlns="http://www.w3.org/2000/svg" xml:space="preserve" x="0px" y="0px" viewBox="0 0 100 100"><path fill="#1003A3" fill-rule="evenodd" d="M.057 19.281v19.195l7.817 7.756 7.817 7.756v.21L7.874 61.93.057 69.662v7.344l7.547-7.464 7.547-7.465 2.195-2.044 2.195-2.044.068-.025.068-.025 1.424 1.415 1.424 1.416L11.29 71.916.057 83.062v7.316l13.078-12.975 13.077-12.975 1.543 1.531 1.543 1.531-14.62 14.46L.057 96.41v3.676h3.786L18.42 85.623 32.997 71.16l1.45 1.439 1.45 1.439-12.905 12.804-12.905 12.805v.146h7.228l7.374-7.325 7.374-7.325 2.802-2.643 2.802-2.643 1.034-1.008 1.034-1.008 1.473 1.464 1.473 1.464-9.66 9.584-9.66 9.583v.148h7.226l7.891-7.829 7.891-7.829 7.891 7.829 7.891 7.829h37.906V61.013l-7.522-7.464-7.522-7.464 7.522-7.463 7.522-7.463v-7.318l-9.366 9.293-9.366 9.293-1.467-1.458-1.467-1.458 7.27-7.297 7.27-7.297 3.564-3.569 3.564-3.569v-7.4L87.298 23.038 74.54 35.697l-1.449-1.44-1.449-1.44L85.85 18.72l14.208-14.097V.086h-2.802l-14.65 14.536-14.65 14.536-1.55-1.535-1.55-1.536 13.103-13.001 13.101-13h-7.374l-11.26 11.171-11.259 11.171-1.442-1.44-1.443-1.44 2.655-2.78 2.655-2.78 6.925-6.878L77.442.232V.086h-7.226l-7.891 7.829-7.891 7.829-7.891-7.829L38.652.086H.057v19.195" clip-rule="evenodd"/></svg>