<svg xmlns="http://www.w3.org/2000/svg" width="247.89999" height="212.3" viewBox="0 0 65.591173 56.171071"><path d="M65.016.043H36.35a.513.513 0 0 0-.514.514v8.937c0 .275.22.514.514.514h18.737c.275 0 .514.22.514.514v12.424a.583.583 0 0 1-.147.367l-8.79 8.827a.515.515 0 0 1-.882-.367v-8.405a.58.58 0 0 1 .147-.367l5.175-5.23a.506.506 0 0 0-.367-.863H36.35a.525.525 0 0 0-.513.514v38.227c0 .459.55.679.88.367L65.4 27.479a.512.512 0 0 0 .147-.367V.557a.542.542 0 0 0-.532-.514"/><path fill="#aa8b30" d="M.546.043H29.23c.275 0 .514.22.514.514v8.937c0 .275-.22.514-.514.514H10.493a.513.513 0 0 0-.514.514v12.424c0 .128.055.257.147.367l8.79 8.827c.33.33.881.092.881-.367v-8.405A.583.583 0 0 0 19.65 23l-5.175-5.23a.507.507 0 0 1 .367-.863H29.23c.276 0 .514.239.514.514v38.227c0 .459-.55.679-.88.367L.196 27.46a.512.512 0 0 1-.147-.367V.556A.497.497 0 0 1 .546.042" class="st1"/></svg>