<svg xmlns="http://www.w3.org/2000/svg" xml:space="preserve" width="946" height="524" viewBox="0 0 250.29583 138.64167"><g style="display:inline;fill:#235084;fill-opacity:.686695"><path d="M250.296 77.763 225.388 90.92c-6.397-7.922-12.93-15.322-19.12-21.538-21.64-21.73-42.381-36.213-62.64-46.788-8.328-4.348-16.537-7.922-24.485-10.906C101.361 5.013 84.693 1.462 69.542.008c26.978.487 56.391 5.735 86.989 17.898 30.597 12.163 62.634 31.242 93.765 59.857z" style="fill:#f3741b;fill-opacity:1;stroke-width:.916001;stroke-opacity:.493562"/><path d="m38.33 43.773-21.86-25.03c36.683-8.948 67.74-6.882 95.026 2.325 28.577 9.643 53.98 27.372 73.423 50.318-18.265-18.47-41.27-31.268-66.53-36.397-5.12-1.04-10.348-1.93-15.631-2.33-20.788-1.572-42.673 2.045-64.427 11.114Z" style="fill:#3e3e3e;fill-opacity:1;stroke-width:.916001;stroke-opacity:.493562"/><path d="m148.155 55.266-15.073 25.112c-11.994-5.944-38.833-19.408-68.641-18.07-18.005.809-37.085 6.958-54.652 23.595C6.5 89.019 3.472 92.798.322 96.7c5.815-9.474 16.71-24.94 34.733-36.7 12.55-8.187 28.606-14.526 48.761-15.842 17.882-1.167 39.175 1.686 64.339 11.108Z" style="fill:#bcbec1;fill-opacity:1;stroke-width:.916001;stroke-opacity:.493562"/><g style="font-size:15.9353px;font-family:Hanwha;letter-spacing:.279488px;display:inline;fill:#000;fill-opacity:1;stroke-width:7.52299;stroke-opacity:.493562"><path d="M79.262 104.468v12.526h-2.358v-6.438h-6.788v6.438h-2.359v-12.526h2.359v4.096h6.788v-4.096z" style="stroke-width:7.52298"/></g><g style="font-size:15.3764px;font-family:Hanwha;fill:#000;fill-opacity:1;stroke-width:7.25915;stroke-opacity:.493562"><path d="M87.641 112.425h-2.706q-1.307 0-1.307 1.03v.323q0 1.015 1.307 1.015h2.706q1.338 0 1.338-1.015v-.323q0-1.03-1.338-1.03zm-3.321 4.26q-1.338 0-2.153-.785-.815-.784-.815-1.937v-.661q0-1.154.815-1.953.815-.8 2.076-.8h4.736v-.03q0-1.123-1.553-1.123h-5.351v-1.876h5.566q1.722 0 2.676.907.938.892.938 2.43v3.183q0 1.199-.862 1.952-.8.692-2.183.692z" style="stroke-width:7.25914"/></g><g style="font-size:15.7273px;font-family:Hanwha;fill:#000;fill-opacity:1;stroke-width:7.42481;stroke-opacity:.493562"><path d="M97.273 107.418h1.935q1.84 0 2.91 1.07 1.053 1.085 1.053 2.956v5.347h-2.328v-5.19q0-1.148-.409-1.635-.487-.598-1.462-.598h-1.494q-.928 0-1.432.598-.377.487-.377 1.635v5.19H93.34v-5.347q0-1.871 1.054-2.957 1.07-1.069 2.878-1.069z" style="stroke-width:7.42479"/></g><g style="font-size:15.5952px;font-family:Hanwha;fill:#000;fill-opacity:1;stroke-width:7.36247;stroke-opacity:.493562"><path d="M112.516 115.598q-.951 1.123-2.448 1.123h-1.217q-1.637 0-2.635-1.045-.905-.967-.905-2.698v-5.551h2.293v5.505q0 .982.39 1.403.42.452 1.122.452h.718q.717 0 1.138-.452.406-.42.406-1.403v-5.505h2.277v5.505q0 .982.39 1.403.42.452 1.122.452h.718q.717 0 1.138-.452.406-.42.406-1.403v-5.505h2.292v5.551q0 1.731-.936 2.698-1.013 1.045-2.65 1.045h-1.217q-1.45 0-2.402-1.123z" style="stroke-width:7.36246"/></g><path d="M126.018 109.333q-.92 0-1.419.592-.374.484-.374 1.622v5.144h-2.307v-12.284h2.307v3.414q.686-.42 1.59-.42h1.918q1.823 0 2.883 1.06 1.045 1.075 1.045 2.93v5.3h-2.307v-5.144q0-1.138-.406-1.622-.483-.592-1.45-.592z" style="font-size:15.5881px;font-family:Hanwha;fill:#000;fill-opacity:1;stroke-width:7.35909;stroke-opacity:.493562"/><g style="font-size:15.6415px;font-family:Hanwha;fill:#000;fill-opacity:1;stroke-width:7.38431;stroke-opacity:.493562"><path d="M139.942 112.454h-2.753q-1.33 0-1.33 1.048v.329q0 1.032 1.33 1.032h2.753q1.36 0 1.36-1.032v-.329q0-1.048-1.36-1.048zm-3.379 4.333q-1.36 0-2.19-.798-.829-.798-.829-1.97v-.673q0-1.173.83-1.987.828-.813 2.111-.813h4.818v-.032q0-1.141-1.58-1.141h-5.443v-1.909h5.662q1.752 0 2.721.923.955.907.955 2.472v3.237q0 1.22-.876 1.987-.814.704-2.221.704z" style="stroke-width:7.3843"/></g><g style="font-size:15.6927px;font-family:Hanwha;fill:#000;fill-opacity:1;stroke-width:7.40848;stroke-opacity:.493562"><path d="M155.789 114.835h5.931v1.961h-6.324q-4.19 0-4.19-3.577v-8.757h2.338v8.411q0 1.962 2.245 1.962z" style="stroke-width:7.40847"/></g><g style="font-size:15.5821px;font-family:Hanwha;fill:#000;fill-opacity:1;stroke-width:7.3563;stroke-opacity:.493562"><path d="M163.74 116.651v-9.256h2.337v9.256zm2.618-11.016q0 .576-.421.95-.42.358-1.044.358-.608 0-1.013-.358-.405-.374-.405-.95 0-.561.405-.935.405-.39 1.013-.39.623 0 1.044.374.42.374.42.95z" style="stroke-width:7.35628"/></g><g style="font-size:15.6297px;font-family:Hanwha;fill:#000;fill-opacity:1;stroke-width:7.37875;stroke-opacity:.493562"><path d="M170.699 107.432h3.376v1.922h-3.392v7.346h-2.329v-9.268q0-1.329.97-2.173.937-.844 2.875-.844h1.876v1.938h-1.766q-1.454 0-1.61 1.079z" style="stroke-width:7.37873"/></g><path d="M179.48 111.83h2.761q1.341 0 1.341-1.029v-.327q0-1.045-1.34-1.045h-2.761q-1.326 0-1.326 1.045v.327q0 1.03 1.326 1.03zm6.41-1.512v.655q0 1.17-.842 1.964-.858.796-2.12.796h-4.773v.047q0 1.122 1.575 1.122h5.74v1.918h-5.974q-1.746 0-2.713-.904-.936-.889-.936-2.448v-3.166q0-1.17.827-1.965.842-.81 2.199-.81h3.976q1.357 0 2.2.81.841.811.841 1.98z" style="font-size:15.5943px;font-family:Hanwha;fill:#000;fill-opacity:1;stroke-width:7.36201;stroke-opacity:.493562"/><path d="M88.364 127.342q0-2.008.973-2.996 1.004-.988 2.933-.988h7.169v1.945h-6.824q-1.16 0-1.584.55-.33.47-.33 1.646v1.067h7.844v1.93h-7.843v1.097q0 1.145.329 1.616.423.533 1.584.533h6.824v1.945H92.27q-1.93 0-2.933-1.004-.973-.956-.973-2.949z" style="font-size:15.6862px;font-family:Hanwha;fill:#000;fill-opacity:1;stroke-width:7.40546;stroke-opacity:.493562"/><g style="font-size:15.6007px;font-family:Hanwha;fill:#000;fill-opacity:1;stroke-width:.920632;stroke-opacity:.493562"><path d="M107.859 130.096q1.482 0 2.23.515.968.64.968 1.95v.702q0 1.295-.967 1.934-.765.5-2.356.5h-6.194v-1.935h6.038q1.154 0 1.154-.67v-.39q0-.687-1.123-.687h-3.105q-1.45 0-2.23-.5-.936-.639-.936-1.934v-.717q0-1.327.936-1.95.764-.515 2.324-.515h5.96v1.934H104.8q-1.139 0-1.139.687v.405q0 .671 1.092.671z" style="stroke-width:.920631"/></g><g style="font-size:15.4044px;font-family:Hanwha;fill:#000;fill-opacity:1;stroke-width:.909048;stroke-opacity:.493562"><path d="M115.354 130.28v3.39h3.697q.91 0 1.325-.524.339-.462.339-1.433v-1.417q0-.986-.339-1.448-.416-.54-1.325-.54h-2.049q-.908 0-1.309.54-.339.462-.339 1.433zm-2.28-.123q0-1.771.986-2.742 1.001-1.001 2.758-1.016h2.418q1.756.015 2.757 1.016 1.002.97 1.002 2.742v1.68q0 1.755-1.002 2.726-1 1.001-2.742 1.017h-3.897v3.05h-2.28z" style="stroke-width:.909047"/></g><path d="M131.4 133.772q.946 0 1.35-.528.357-.481.357-1.443v-1.428q0-.978-.357-1.46-.404-.543-1.35-.543h-2.329q-.931 0-1.335.543-.341.466-.341 1.46v1.428q0 .977.341 1.443.404.528 1.335.528zm.217 1.925h-2.748q-1.77-.016-2.778-1.025-.994-.978-.994-2.747v-1.692q0-1.785.994-2.763 1.009-1.009 2.778-1.025h2.748q1.785.016 2.794 1.025.993.978.993 2.763v1.692q0 1.77-.993 2.747-1.01 1.01-2.794 1.025z" style="font-size:15.5221px;font-family:Hanwha;fill:#000;fill-opacity:1;stroke-width:.916001;stroke-opacity:.493562"/><g style="font-size:15.5222px;font-family:Hanwha;fill:#000;fill-opacity:1;stroke-width:.916001;stroke-opacity:.493562"><path d="M137.492 129.286q0-1.35.9-2.158.854-.776 2.608-.776h3.508v1.925h-3.275q-1.428 0-1.428 1.303v6.023h-2.313z" style="stroke-width:.916"/></g><g style="font-size:15.7155px;font-family:Hanwha;fill:#000;fill-opacity:1;stroke-width:.927407;stroke-opacity:.493562"><path d="M151.298 126.283h2.765v1.902h-2.765v7.465h-2.342v-7.465h-2.766v-1.902h2.766v-2.043h2.342z" style="stroke-width:.927406"/></g><g style="font-size:15.5973px;font-family:Hanwha;fill:#000;fill-opacity:1;stroke-width:.920431;stroke-opacity:.493562"><path d="M162.394 130.095q1.481 0 2.23.515.967.64.967 1.95v.701q0 1.295-.967 1.934-.764.5-2.355.5h-6.192v-1.934h6.036q1.154 0 1.154-.671v-.39q0-.686-1.123-.686h-3.104q-1.45 0-2.23-.5-.936-.639-.936-1.934v-.717q0-1.326.936-1.95.764-.514 2.324-.514h5.958v1.934h-5.756q-1.138 0-1.138.686v.405q0 .671 1.092.671z" style="stroke-width:.92043"/></g></g></svg>