<svg xmlns="http://www.w3.org/2000/svg" xml:space="preserve" width="640" height="860" viewBox="0 0 169.33333 227.54167"><path d="M84.667 0c-1.522 1.743-3.774 3.848-6.105 5.437-5.002 3.408-10.682 5.93-16.489 8.253-14.342 5.736-30.668 8.416-46.848 9.566-5.09.362-10.321.326-15.225.344v103.862c.527 10.84 2.936 21.444 7.525 32.897 2.673 6.67 6.47 13.502 12.186 20.792 3.319 4.232 7.075 8.762 12.176 13.132 3.492 2.992 7.439 6.106 12.004 9.16 3.828 2.563 8.157 5.071 12.709 7.71 8.558 4.959 17.428 10.18 28.067 16.389 9.26-5.424 16.11-9.501 23.71-13.905 8.123-4.709 16.012-8.797 25.31-16.173 2.793-2.215 5.263-4.591 7.659-6.996 3.421-3.434 6.58-6.988 9.373-10.737 2.761-3.705 5.29-7.524 7.412-11.458 7.221-13.39 10.811-27.865 11.202-41.564V23.6c-14.686.504-27.727-1.176-38.641-3.247-17.808-3.38-30.408-8.951-37.974-13.619C88.118 3.896 85.511.947 84.667 0Z" style="display:inline;fill:#ce9438;fill-opacity:1;stroke-width:.916001;stroke-opacity:.493562"/><path d="m3.704 87.048 51.33-1.058 17.991-30.957 21.431 51.859 20.638-21.96 52.123 6.933c-.162 16.272.302 26.955-.287 37.144-1.165 20.16-9.132 38.515-19.623 51.464-2.95 3.64-5.118 6.246-9.666 10.5-9.688 9.059-18.579 14.107-29.31 20.187-14.445 8.184-15.344 9.266-23.664 13.736-14.004-8.144-29.44-16.653-39.57-23.219-4.569-2.96-8.29-6.12-11.198-8.725-11.69-10.467-18.374-21.597-20.588-25.65-7.269-13.301-10.998-31.3-10.88-39.614l-.149-35.696Z" style="display:inline;fill:#000;fill-opacity:1;stroke-width:.916001;stroke-opacity:.493562"/><path d="M84.667 3.368c-4.605 4.507-10.997 8.061-18.327 11.09-21.104 8.718-49.744 11.875-64.013 11.477L2.245 81.01l50.701 3.555L72.03 51.075l25.257 58.185 17.212-21.89 52.595-.132.124-61.373c-6.154.251-13.86-.175-22.308-1.159-13.755-1.602-29.448-4.927-43.4-11.036-6.217-2.722-13.758-6.748-16.842-10.302Z" style="display:inline;fill:#ec1b24;fill-opacity:1;stroke-width:.916001;stroke-opacity:.493562"/><path d="m2.315 80.998-.011 10.944 57.52-.015 11.831-30.375 26.297 67.479 14.549-37.286 54.716.104V80.822L105.073 81 97.94 99.157 71.596 31.91 52.324 81.12Z" style="display:inline;fill:#fff;fill-opacity:1;stroke-width:.916001;stroke-opacity:.493562"/><path d="M36.38 144.198v21.828h5.821v-16.14h16.878c1.561 0 2.477 1.818 1.959 2.382H44.45v5.736l12.435 8.022h10.368l-12.37-7.937h11.924v-7.386c-.19-2.063-3.08-6.505-7.38-6.505zM70.776 144.066h28.972v5.734H76.465v2.5h23.283v5.5H76.465v2.6h23.283v5.626H70.776ZM103.849 144.066v5.688h22.622l2.117 5.259-2.183 5.192H109.67v-8.003h-5.821v13.824h26.558l4.299-11.013-4.266-10.947zM36.3 170.175v9.325H38v-3.6h8.6v-1.65H38v-2.65h8.6v-1.425zM58.225 170.175v9.325h10.5v-9.325zm1.697 1.525h7.106v6.1h-7.094Z" style="display:inline;fill:#ec1b24;fill-opacity:1;stroke-width:.916001;stroke-opacity:.493562"/><path d="M80.2 170.175v9.325h1.698v-7.8h5.496c1.058 0 1.684 1.06 1.543 1.9H83.5v1.7l4.923 4.2h2.49l-4.735-4.2h4.447v-2.337c0-1.546-1.773-2.788-2.88-2.788z" style="fill:#ec1b24;fill-opacity:1;stroke-width:.916001;stroke-opacity:.493562"/><path d="M102.2 170.175h10.4v1.525H104v6.1h8.6v1.7h-10.4zM124.288 170.175H134.6v1.525h-8.7v2.3h8.7v1.6h-8.7v2.2h8.7v1.7h-10.312z" style="display:inline;fill:#ec1b24;fill-opacity:1;stroke-width:.916001;stroke-opacity:.493562"/></svg>